<svg width="50" height="40" viewBox="0 0 50 40" fill="none" xmlns="http://www.w3.org/2000/svg">
<path fill-rule="evenodd" clip-rule="evenodd" d="M25.5855 17.8256L21.2932 12.9043C21.2002 12.7977 21.1265 12.6711 21.0762 12.5318C21.0259 12.3925 21 12.2432 21 12.0925C21 11.9417 21.0259 11.7924 21.0762 11.6531C21.1265 11.5138 21.2002 11.3873 21.2932 11.2807C21.3861 11.174 21.4964 11.0895 21.6179 11.0318C21.7393 10.9741 21.8694 10.9444 22.0009 10.9444C22.1323 10.9444 22.2625 10.9741 22.3839 11.0318C22.5053 11.0895 22.6157 11.174 22.7086 11.2807L28.7063 18.1604C28.7994 18.2669 28.8733 18.3934 28.9237 18.5327C28.9741 18.672 29 18.8214 29 18.9722C29 19.123 28.9741 19.2724 28.9237 19.4117C28.8733 19.551 28.7994 19.6775 28.7063 19.784L22.7086 26.6637C22.5209 26.879 22.2663 27 22.0009 27C21.7354 27 21.4809 26.879 21.2932 26.6637C21.1054 26.4484 21 26.1564 21 25.8519C21 25.5474 21.1054 25.2554 21.2932 25.0401L25.5855 20.1188L26.1757 18.9723L25.5855 17.8256Z" fill="#272727"/>
</svg>
