<svg width="396" height="146.43555639758534" viewBox="0 0 369.89473684210526 136.7821757525558" class="looka-1j8o68f"><defs id="SvgjsDefs6600"></defs><g id="SvgjsG6601" featurekey="hmhgWD-0" transform="matrix(1.4651434721477503,0,0,1.4651434721477503,-25.683890620220488,-5.439305532143969)" fill="#ff471f"><g xmlns="http://www.w3.org/2000/svg"><path fill="#ff471f" d="M27.984,42.838C45.23,25.729,47.746,11.361,41.939,4.395c0,0,43.898,18.04,18.077,59.882   c-4.42,7.105-15.459,15.498-9.688,32.793C50.327,97.07-4.908,81.605,27.984,42.838z"></path><path fill="#ff471f" d="M54.645,96.217c-0.944-3.51-5.154-11.154,7.686-26.359c6.861-8.104,11.557-25.906,9.27-30.157   c0,0,21.914,28.944-3.447,46.278C53.117,96.283,54.645,96.217,54.645,96.217z"></path></g></g><g id="SvgjsG6602" featurekey="1RRcwp-0" transform="matrix(4.496072770186894,0,0,4.496072770186894,103.90706922805305,-19.8973801853459)" fill="#ffffff"><path d="M4.48 20 l-2.68 0 l0 -14.24 l2.68 0 l0 14.24 z M11.600000000000001 25.32 c-0.96 0 -1.88 -0.24 -2.64 -0.72 l0 0 c-0.38 -0.2 -0.72 -0.52 -0.88 -0.66 l-0.32 -0.32 l1.8 -1.58 l0.26 0.22 c0.54 0.4 1.22 0.68 1.78 0.72 l0 0 l0 0 c1.36 -0.02 2.48 -1.18 2.48 -2.58 l0 -1.16 l-0.1 0.1 c-0.7 0.68 -1.36 0.78 -2.1 0.82 l-0.34 0 c-1.24 -0.04 -2.34 -0.5 -3.2 -1.36 c-0.9 -0.92 -1.4 -2.12 -1.4 -3.38 s0.5 -2.46 1.4 -3.38 c0.92 -0.9 2.12 -1.38 3.38 -1.38 c0.98 0 1.66 0.26 2.26 0.86 l0.1 0.08 l0 -0.76 l2.42 0 l0 9.58 c0 1.32 -0.52 2.54 -1.46 3.46 c-0.9 0.94 -2.12 1.44 -3.44 1.44 z M11.72 12.98 c-1.28 0 -2.36 1.12 -2.36 2.44 s1.08 2.42 2.36 2.42 s2.36 -1.1 2.36 -2.42 s-1.08 -2.44 -2.36 -2.44 z M27.78 20 l-2.52 0 l0 -4.9 c0 -1.08 -0.86 -1.92 -1.94 -1.92 c-1.04 0 -1.94 0.86 -1.94 1.92 l0 4.9 l-2.5 0 l0 -9.16 l2.5 0 l0 0.66 c0.62 -0.62 1.28 -0.84 1.94 -0.84 c1.2 0 2.32 0.46 3.16 1.28 c0.84 0.86 1.3 1.98 1.3 3.16 l0 4.9 z M32.86 20 l-2.6 0 l0 -9.16 l2.6 0 l0 9.16 z M31.56 9.74 c-0.86 0 -1.56 -0.7 -1.56 -1.54 c0 -0.42 0.16 -0.8 0.46 -1.08 c0.3 -0.3 0.68 -0.46 1.1 -0.46 c0.84 0 1.54 0.7 1.54 1.54 s-0.7 1.54 -1.54 1.54 z M42.099999999999994 20 l-2.4 0 c-0.88 0 -1.7 -0.34 -2.3 -0.94 c-0.62 -0.62 -0.94 -1.42 -0.94 -2.3 l0 -3.8 l-1.28 0 l0 -2.06 l1.28 0 l0 -3.6 l2.38 0 l0 3.6 l2.66 0 l0 2.06 l-2.66 0 l0 3.76 c0 0.5 0.44 0.96 0.88 0.96 l1.74 0 z M47.32 20.22 l-0.02 0 c-0.58 0 -1.18 -0.14 -1.74 -0.4 c-0.52 -0.22 -1 -0.58 -1.44 -1.04 c-0.7 -0.76 -1.12 -1.76 -1.22 -2.8 c-0.02 -0.18 -0.04 -0.36 -0.04 -0.56 c0 -0.4 0.06 -0.82 0.16 -1.24 c0.18 -0.8 0.56 -1.54 1.1 -2.1 c0.4 -0.44 0.86 -0.78 1.44 -1.06 c0.54 -0.26 1.14 -0.38 1.76 -0.38 c0.64 0 1.22 0.12 1.76 0.38 c0.6 0.28 1.08 0.64 1.44 1.06 c0.52 0.56 0.92 1.28 1.12 2.1 c0.1 0.38 0.14 0.78 0.14 1.24 l0 0.46 l-6.72 0 l0.02 0.14 c0.26 1.24 1.2 2.14 2.24 2.14 l0.02 0 c0.58 -0.04 1.22 -0.4 1.6 -0.72 l0.22 -0.18 l1.66 1.44 l-0.3 0.26 c-0.22 0.2 -0.5 0.44 -0.8 0.6 l-0.02 0 c-0.72 0.42 -1.5 0.64 -2.38 0.66 z M47.32 12.719999999999999 c-0.78 0 -1.56 0.54 -1.98 1.38 l-0.08 0.16 l4.14 0 l-0.08 -0.16 c-0.46 -0.86 -1.22 -1.38 -2 -1.38 z M56.04 20 l-2.52 0 l0 -9.16 l2.52 0 l0 0.74 c0.72 -0.72 1.8 -0.96 2.52 -0.96 l0.6 0 l-0.6 2.5 l-0.38 0 c-1.18 0 -2.14 0.92 -2.14 2.02 l0 4.86 z"></path></g><g id="SvgjsG6603" featurekey="sloganFeature-0" transform="matrix(1.8248345473982548,0,0,1.8248345473982548,112.00000065261169,94.98531723143475)" fill="#ffffff"><path d="M6.16 11.16 c1.54 0.6 2.62 2.08 2.62 3.8 c0 2.38 -1.72 4.1 -4.1 4.1 l-4.32 0 c-0.2 0 -0.36 -0.16 -0.36 -0.38 l0 -12.64 c0 -0.2 0.16 -0.36 0.36 -0.36 l4.16 0 c1.64 0 2.96 1.32 2.96 2.96 c0 1.1 -0.5 2 -1.32 2.52 z M4.68 18.32 c1.98 0 3.36 -1.38 3.36 -3.36 c0 -1.84 -1.52 -3.34 -3.36 -3.34 l-3.94 0 l0 6.7 l3.94 0 z M0.74 6.42 l0 4.46 l3.78 0 c1.32 0 2.22 -0.92 2.22 -2.24 c0 -1.22 -1 -2.22 -2.22 -2.22 l-3.78 0 z M18.96 5.74 c0.18 0.1 0.24 0.34 0.14 0.5 l-4.26 7.52 l0 4.94 c0 0.2 -0.16 0.36 -0.36 0.36 c-0.22 0 -0.38 -0.16 -0.38 -0.36 l0 -4.94 l-4.24 -7.52 c-0.1 -0.16 -0.04 -0.4 0.14 -0.5 s0.4 -0.04 0.5 0.14 l3.98 7.04 l3.98 -7.04 c0.1 -0.18 0.32 -0.24 0.5 -0.14 z M30.1 5.68 c2.02 0 3.66 1.64 3.66 3.64 c0 2.12 -1.54 3.66 -3.66 3.66 l-4 0 l0 5.72 c0 0.2 -0.16 0.36 -0.38 0.36 c-0.2 0 -0.36 -0.16 -0.36 -0.36 l0 -12.66 c0 -0.2 0.16 -0.36 0.36 -0.36 l4.38 0 z M30.1 12.24 c1.72 0 2.92 -1.2 2.92 -2.92 c0 -1.6 -1.3 -2.9 -2.92 -2.9 l-3.98 0 l0 5.82 l3.98 0 z M41.24 19.06 c-3.9 0 -7.06 -3.16 -7.06 -7.06 s3.16 -7.06 7.06 -7.06 s7.06 3.16 7.06 7.06 s-3.16 7.06 -7.06 7.06 z M41.24 5.68 c-3.48 0 -6.32 2.84 -6.32 6.32 s2.84 6.32 6.32 6.32 s6.32 -2.84 6.32 -6.32 s-2.84 -6.32 -6.32 -6.32 z M56.04 18.5 c0.1 0.16 0.04 0.4 -0.12 0.5 c-0.06 0.04 -0.14 0.06 -0.2 0.06 c-0.12 0 -0.24 -0.06 -0.32 -0.18 l-4.04 -6.62 l-1.84 3.02 l0 3.4 c0 0.22 -0.16 0.38 -0.38 0.38 c-0.2 0 -0.36 -0.16 -0.36 -0.38 l0 -12.64 c0 -0.2 0.16 -0.36 0.36 -0.36 c0.22 0 0.38 0.16 0.38 0.36 l0 7.82 l4.9 -8.02 c0.1 -0.16 0.32 -0.22 0.5 -0.12 c0.18 0.12 0.22 0.34 0.12 0.52 l-3.24 5.32 z M66.5 5.68 c0.2 0 0.36 0.16 0.36 0.36 c0 0.22 -0.16 0.38 -0.36 0.38 l-4.34 0 l0 12.28 c0 0.2 -0.16 0.36 -0.36 0.36 c-0.22 0 -0.38 -0.16 -0.38 -0.36 l0 -12.28 l-4.34 0 c-0.2 0 -0.36 -0.16 -0.36 -0.38 c0 -0.2 0.16 -0.36 0.36 -0.36 l9.42 0 z M72.16 19.42 c-2.02 0 -3.64 -0.7 -4.8 -2.1 c-0.12 -0.14 -0.1 -0.38 0.06 -0.52 c0.14 -0.12 0.38 -0.1 0.52 0.06 c1 1.22 2.42 1.82 4.22 1.82 c2.04 0 3.66 -1.28 3.66 -2.94 c0 -1.6 -2.06 -2.52 -4.02 -3.42 c-2.06 -0.92 -4.2 -1.88 -4.2 -3.74 c0 -1.58 1.18 -3.26 4.5 -3.26 c0.54 0 2.4 0.1 3.64 1.5 c0.14 0.16 0.12 0.4 -0.04 0.52 c-0.14 0.14 -0.38 0.12 -0.52 -0.02 c-0.82 -0.94 -2.12 -1.26 -3.08 -1.26 c-2.34 0 -3.76 0.94 -3.76 2.52 c0 1.38 1.82 2.2 3.76 3.08 c2.18 0.98 4.46 2 4.46 4.08 s-1.94 3.68 -4.4 3.68 z M84.04 19.42 c-3.74 0 -6.78 -3.16 -6.78 -7.06 c0 -3.88 3.04 -7.06 6.78 -7.06 c2.28 0 4.4 1.18 5.66 3.16 c0.1 0.16 0.06 0.4 -0.1 0.5 c-0.16 0.12 -0.38 0.08 -0.5 -0.1 c-1.12 -1.76 -3.02 -2.82 -5.06 -2.82 c-3.34 0 -6.08 2.84 -6.08 6.32 s2.74 6.32 6.08 6.32 c2.04 0 3.94 -1.04 5.06 -2.82 c0.12 -0.16 0.34 -0.2 0.5 -0.1 c0.16 0.12 0.2 0.34 0.1 0.52 c-1.26 1.96 -3.38 3.14 -5.66 3.14 z M102.5 18.54 c0.08 0.2 -0.02 0.42 -0.2 0.48 c-0.06 0.02 -0.1 0.04 -0.14 0.04 c-0.16 0 -0.28 -0.08 -0.34 -0.24 l-1.4 -3.32 l-7.1 0 l-1.4 3.32 c-0.06 0.16 -0.18 0.24 -0.34 0.24 c-0.04 0 -0.08 -0.02 -0.14 -0.04 c-0.18 -0.06 -0.28 -0.28 -0.2 -0.48 l5.28 -12.64 c0.06 -0.14 0.2 -0.24 0.36 -0.22 c0.14 -0.02 0.28 0.08 0.34 0.22 z M93.62 14.76 l6.5 0 l-3.24 -7.78 z M112.7 5.68 c0.2 0 0.36 0.16 0.36 0.36 l0 12.66 c0 0.2 -0.16 0.36 -0.36 0.36 l-0.02 0 c-0.12 0 -0.22 -0.06 -0.3 -0.16 l-8.56 -11.74 l0 11.54 c0 0.2 -0.16 0.36 -0.38 0.36 c-0.2 0 -0.36 -0.16 -0.36 -0.36 l0 -12.66 c0 -0.2 0.16 -0.36 0.36 -0.36 l0.02 0 c0.12 0 0.22 0.04 0.3 0.14 l8.56 11.76 l0 -11.54 c0 -0.2 0.18 -0.36 0.38 -0.36 z"></path></g></svg>