<svg viewBox="0 0 116 32" xmlns="http://www.w3.org/2000/svg">
    <defs>
        <linearGradient x1="1.258%" y1="51.258%" x2="98.742%" y2="51.258%" id="h7brbmuuza">
            <stop stop-color="#BB9FFF" offset="0%"/>
            <stop stop-color="#5B7DD7" offset="100%"/>
        </linearGradient>
    </defs>
    <g fill="none" fill-rule="evenodd">
        <path d="M0 0h116v32H0z"/>
        <path d="m25.039 19.939-4.097-4.097 4.097-4.097 4.097 4.097-4.097 4.097zm-19.081-3.95a3.702 3.702 0 1 1 7.404 0 3.702 3.702 0 0 1-7.404 0zm48.366-7.91V1.667a.497.497 0 0 0-.497-.497h-4.029a.497.497 0 0 0-.497.497V8.08H43.258a.746.746 0 0 0-.606.31l-4.898 6.823V1.667a.497.497 0 0 0-.497-.497h-4.029a.497.497 0 0 0-.497.497v11.29A8.27 8.27 0 0 0 25.04 7.72a8.27 8.27 0 0 0-7.69 5.229A8.27 8.27 0 0 0 6.023 8.562a.483.483 0 0 0-.483-.483H1.483A.483.483 0 0 0 1 8.562v21.91c0 .276.223.498.497.498h3.964a.497.497 0 0 0 .497-.497v-7.091a8.27 8.27 0 0 0 11.391-4.354 8.27 8.27 0 0 0 7.69 5.23 8.27 8.27 0 0 0 7.692-5.238v4.414c0 .274.223.497.497.497h4.03a.497.497 0 0 0 .496-.497v-7.188l4.932 7.354c.139.207.371.33.62.33h4.859a.327.327 0 0 0 .264-.52l-5.76-7.845 2.482-3.213h4.15v11.082c0 .274.223.497.497.497h4.029a.497.497 0 0 0 .497-.497V12.352h.671c.266 0 .511-.141.645-.37l1.985-3.411a.327.327 0 0 0-.283-.492h-3.018z" fill="#111A1D"/>
        <path d="m63.437 7.622.439.009a9.683 9.683 0 0 1 3.28.692l.324.141a6.44 6.44 0 0 1 2.15 1.569l.056.078a.5.5 0 0 1-.072.604l-2.162 2.212-.068.058a.502.502 0 0 1-.639-.056l-.207-.19a4.03 4.03 0 0 0-1.128-.697l-.264-.1a4.685 4.685 0 0 0-1.546-.275l-.206.004c-.464.019-.82.105-1.066.257l-.1.068c-.216.164-.324.37-.324.617l.007.106c.037.277.225.502.563.676l.199.096c.344.158.756.3 1.237.426l.439.12c.446.124.914.264 1.404.418l.323.111a7.728 7.728 0 0 1 1.536.77l.235.164c.305.228.575.494.816.793l-.005-.152-.003-.152.004-.253a8.269 8.269 0 0 1 8.265-8.016l.333.007c1.767.07 3.39.695 4.703 1.706l.067.062c.16.18.171.455.012.648l-.239.302a9.172 9.172 0 0 0-1.426 2.75l-.035.082a.485.485 0 0 1-.774.121l-.147-.142a3.683 3.683 0 0 0-2.695-.964l-.184.015c-1.713.192-3.232 1.778-3.313 3.504l-.004.198a3.702 3.702 0 0 0 3.702 3.682l.235-.008a3.683 3.683 0 0 0 2.39-1.089l.07-.059a.49.49 0 0 1 .755.248l.127.372c.36.983.885 1.887 1.538 2.68l.052.075a.498.498 0 0 1-.131.635l-.25.184a8.225 8.225 0 0 1-4.786 1.528l-.299-.005a8.267 8.267 0 0 1-7.048-4.472l-.03.258c-.166 1.189-.729 2.166-1.69 2.93l-.223.168c-1.14.813-2.636 1.219-4.49 1.219l-.4-.008a10.5 10.5 0 0 1-2.373-.367l-.387-.113a10.186 10.186 0 0 1-2.125-.93l-.353-.217a9.207 9.207 0 0 1-1.266-.971l-.062-.069a.5.5 0 0 1 .048-.65l2.17-2.17.075-.061a.495.495 0 0 1 .605.042l.235.2a5.88 5.88 0 0 0 1.304.796l.269.111a5.86 5.86 0 0 0 2.096.362l.226-.005c.438-.021.792-.106 1.063-.256l.11-.068a.791.791 0 0 0 .362-.682l-.007-.126c-.036-.328-.219-.574-.547-.738l-.195-.092a8.957 8.957 0 0 0-1.257-.43l-.453-.126a49.47 49.47 0 0 1-1.422-.429l-.388-.132a8.887 8.887 0 0 1-1.471-.7l-.215-.136a4.143 4.143 0 0 1-1.22-1.298l-.106-.188c-.3-.582-.449-1.313-.449-2.194l.007-.275c.043-.906.301-1.7.776-2.383l.163-.22c.509-.647 1.194-1.166 2.055-1.558.957-.434 2.098-.652 3.425-.652zm25.702.098.36.008a8.223 8.223 0 0 1 3.341.867v-.019l.008-.09a.497.497 0 0 1 .49-.407h3.93l.09.008a.497.497 0 0 1 .408.489v14.858l-.008.09a.497.497 0 0 1-.49.407h-3.93l-.09-.008a.497.497 0 0 1-.408-.49v-.051l-.307.146a8.23 8.23 0 0 1-3.395.729l-.253-.004a8.27 8.27 0 0 1-7.996-8.83l.02-.254c.39-3.974 3.652-7.16 7.658-7.43.192-.013.383-.019.572-.019zm0 4.567-.197.005a3.702 3.702 0 0 0 .196 7.399l.197-.006a3.702 3.702 0 0 0 3.506-3.696l-.006-.197a3.702 3.702 0 0 0-3.697-3.505zm15.843-3.768c-.44.233-.835.512-1.19.832v-.775a.497.497 0 0 0-.497-.497h-4.03a.497.497 0 0 0-.496.497v14.858c0 .274.222.497.497.497h4.029a.497.497 0 0 0 .497-.497v-8.538c0-.543.119-1.022.359-1.435a2.52 2.52 0 0 1 .978-.963 2.85 2.85 0 0 1 1.403-.342c.783 0 1.435.256 1.957.767.522.51.783 1.169.783 1.973v8.538c0 .274.222.497.497.497h4.028a.497.497 0 0 0 .498-.497v-9.647a6.035 6.035 0 0 0-.783-3.017 5.892 5.892 0 0 0-2.153-2.202c-.913-.543-1.946-.815-3.098-.815-1.218 0-2.311.255-3.279.766" fill="url(#h7brbmuuza)"/>
    </g>
</svg>
