<svg width="20" height="20" viewBox="0 0 20 20" xmlns="http://www.w3.org/2000/svg">
    <defs>
        <linearGradient x1="50%" y1="1.384%" x2="50%" y2="99.74%" id="orqccvduma">
            <stop stop-color="#C5F0FF" offset="0%"/>
            <stop stop-color="#8CC6DA" offset="100%"/>
        </linearGradient>
    </defs>
    <path d="M8.194 1.694a2.696 2.696 0 0 1 3.475-.115l.137.115 5.975 4.407A3 3 0 0 1 19 8.515V17a2 2 0 0 1-2 2h-3.5a1.5 1.5 0 0 1-1.5-1.5v-2.75A1.75 1.75 0 0 0 10.25 13l-.5-.001A1.75 1.75 0 0 0 8 14.75l.005 2.75a1.5 1.5 0 0 1-1.5 1.501L3 19a2 2 0 0 1-2-2V8.515a3 3 0 0 1 1.22-2.414l5.974-4.407z" fill="url(#orqccvduma)" fill-rule="evenodd"/>
</svg>
