<svg width="20" height="20" viewBox="0 0 20 20" xmlns="http://www.w3.org/2000/svg">
    <defs>
        <linearGradient x1="50%" y1="1.384%" x2="50%" y2="99.74%" id="4f57lce60a">
            <stop stop-color="#C5F0FF" offset="0%"/>
            <stop stop-color="#8CC6DA" offset="100%"/>
        </linearGradient>
    </defs>
    <path d="m11.586 1.584 1.13.964c.178.151.4.243.633.261l1.48.119a2.445 2.445 0 0 1 2.243 2.242l.119 1.481c.018.233.11.455.261.633l.964 1.13a2.445 2.445 0 0 1 0 3.172l-.964 1.13c-.151.178-.243.4-.261.633l-.119 1.48a2.445 2.445 0 0 1-2.242 2.243l-1.481.119c-.233.018-.455.11-.633.261l-1.13.964a2.445 2.445 0 0 1-3.172 0l-1.13-.964a1.111 1.111 0 0 0-.633-.261l-1.48-.119a2.445 2.445 0 0 1-2.243-2.242l-.119-1.481a1.111 1.111 0 0 0-.261-.633l-.964-1.13a2.445 2.445 0 0 1 0-3.172l.964-1.13c.151-.178.243-.4.261-.633l.119-1.48A2.445 2.445 0 0 1 5.17 2.927l1.481-.119c.233-.018.455-.11.633-.261l1.13-.964a2.445 2.445 0 0 1 3.172 0zm-2.53 5.133-.238.684a1 1 0 0 1-.924.672l-.724.014c-.948.02-1.34 1.224-.584 1.797l.577.437a1 1 0 0 1 .353 1.087l-.21.692c-.274.908.75 1.652 1.529 1.11l.594-.413a1 1 0 0 1 1.142 0l.594.414c.778.541 1.803-.203 1.529-1.11l-.21-.693a1 1 0 0 1 .353-1.087l.577-.437c.755-.573.364-1.777-.584-1.797l-.724-.014a1 1 0 0 1-.924-.672l-.237-.684c-.312-.895-1.578-.895-1.89 0z" fill="url(#4f57lce60a)" fill-rule="evenodd"/>
</svg>
