<svg width="20" height="20" viewBox="0 0 20 20" xmlns="http://www.w3.org/2000/svg">
    <defs>
        <linearGradient x1="50%" y1="1.384%" x2="50%" y2="99.74%" id="6yuhtg5eua">
            <stop stop-color="#C5F0FF" offset="0%"/>
            <stop stop-color="#8CC6DA" offset="100%"/>
        </linearGradient>
    </defs>
    <path d="M9 1a3 3 0 0 1 3 3v5H7a1 1 0 1 0 0 2h5v5a3 3 0 0 1-3 3H4a3 3 0 0 1-3-3V4a3 3 0 0 1 3-3h5zm5.203 4.793a1 1 0 0 1 1.32-.083l.094.083 2.793 2.793a2 2 0 0 1 .117 2.701l-.117.127-2.793 2.793a1 1 0 0 1-1.497-1.32l.083-.094L15.996 11H12V9h3.996l-1.793-1.793a1 1 0 0 1 0-1.414z" fill="url(#6yuhtg5eua)" fill-rule="evenodd"/>
</svg>
